<?xml version="1.0" encoding="utf-8"?>
<!-- Generator: Adobe Illustrator 22.1.0, SVG Export Plug-In . SVG Version: 6.00 Build 0)  -->
<svg version="1.1" id="Layer_1" xmlns="http://www.w3.org/2000/svg" xmlns:xlink="http://www.w3.org/1999/xlink" x="0px" y="0px"
	 viewBox="0 0 522 421" style="enable-background:new 0 0 522 421;" xml:space="preserve">
<style type="text/css">
	.st0{fill:#1C1A75;}
	.st1{fill:#EBF3FA;}
	.st2{fill:#F99746;}
	.st3{fill:#91A8F6;}
	.st4{fill:#6BB7BF;}
	.st5{fill:#FF8383;}
	.st6{fill:#D15E79;}
	.st7{fill:#1B2A67;}
	.st8{fill:#86294E;}
	.st9{fill:#FFD2D4;}
	.st10{fill:#201028;}
	.st11{fill:#445EEA;}
	.st12{fill:#E0EEF7;}
	.st13{fill:#599DAD;}
	.st14{fill:#B2BF3A;}
	.st15{fill:#CADD58;}
	.st16{fill:#FFFFFF;}
	.st17{fill:none;stroke:#1B2A67;stroke-width:0.8269;stroke-linecap:round;stroke-miterlimit:10;}
	.st18{fill:#C15810;}
	.st19{fill:#ED7D2B;}
	.st20{fill:#254380;}
	.st21{fill:none;stroke:#445EEA;stroke-width:0.6576;stroke-linecap:round;stroke-linejoin:round;stroke-miterlimit:10;}
</style>
<g id="Layer_2_1_">
</g>
<g id="Layer_3">
	<g>
		<g>
			<path class="st0" d="M440.2,392.5c62-27.8,98.7-238.9,51-318.6c-47.6-79.7-311.4-96.4-432.6,0s7,293.5,95.8,322.9
				C243.3,426.2,399.4,410.8,440.2,392.5z"/>
		</g>
		<g>
			<path class="st1" d="M63.4,340.8c0,0-41.7-52.9,0.6-118.6c39.2-60.9,100-31.7,138.3-87.6c97-141.7,304.1-32.8,273.1,87.7
				c-15,58.3,45.8,60.4,14.8,118.7L63.4,340.8z"/>
			<path class="st2" d="M365.8,193.2c0,1.5-1.2,2.8-2.8,2.8c-1.5,0-2.8-1.2-2.8-2.8c0-1.5,1.2-2.8,2.8-2.8
				C364.6,190.5,365.8,191.7,365.8,193.2z M364.5,193.2c0-0.8-0.6-1.4-1.4-1.4s-1.4,0.6-1.4,1.4c0,0.8,0.6,1.4,1.4,1.4
				C363.8,194.6,364.5,194,364.5,193.2z"/>
			<g>
				<path class="st2" d="M157.8,137.7c-0.4,0-0.7,0.3-0.7,0.7v1.6c0,0.4,0.3,0.7,0.7,0.7c0.4,0,0.7-0.3,0.7-0.7v-1.6
					C158.5,138,158.2,137.7,157.8,137.7z"/>
				<path class="st2" d="M156,136.1h-1.6c-0.4,0-0.7,0.3-0.7,0.7s0.3,0.7,0.7,0.7h1.6c0.4,0,0.7-0.3,0.7-0.7
					C156.7,136.4,156.4,136.1,156,136.1z"/>
				<path class="st2" d="M157.8,132.8c-0.4,0-0.7,0.3-0.7,0.7v1.6c0,0.4,0.3,0.7,0.7,0.7c0.4,0,0.7-0.3,0.7-0.7v-1.6
					C158.5,133.1,158.2,132.8,157.8,132.8z"/>
				<path class="st2" d="M161.2,136h-1.6c-0.4,0-0.7,0.3-0.7,0.7s0.3,0.7,0.7,0.7h1.6c0.4,0,0.7-0.3,0.7-0.7
					C161.9,136.3,161.6,136,161.2,136z"/>
			</g>
			<g>
				<path class="st2" d="M330.5,93.2c-0.4,0-0.7,0.3-0.7,0.7v1.6c0,0.4,0.3,0.7,0.7,0.7c0.4,0,0.7-0.3,0.7-0.7v-1.6
					C331.2,93.5,330.9,93.2,330.5,93.2z"/>
				<path class="st2" d="M328.7,91.6h-1.6c-0.4,0-0.7,0.3-0.7,0.7c0,0.4,0.3,0.7,0.7,0.7h1.6c0.4,0,0.7-0.3,0.7-0.7
					C329.4,91.9,329.1,91.6,328.7,91.6z"/>
				<path class="st2" d="M330.5,88.3c-0.4,0-0.7,0.3-0.7,0.7v1.6c0,0.4,0.3,0.7,0.7,0.7c0.4,0,0.7-0.3,0.7-0.7V89
					C331.2,88.6,330.9,88.3,330.5,88.3z"/>
				<path class="st2" d="M333.9,91.5h-1.6c-0.4,0-0.7,0.3-0.7,0.7c0,0.4,0.3,0.7,0.7,0.7h1.6c0.4,0,0.7-0.3,0.7-0.7
					S334.2,91.5,333.9,91.5z"/>
			</g>
			<path class="st2" d="M435.2,131c0,1.3,1.1,2.4,2.4,2.4c1.3,0,2.4-1.1,2.4-2.4c0-1.3-1.1-2.4-2.4-2.4
				C436.2,128.6,435.2,129.7,435.2,131z"/>
			<path class="st3" d="M413.9,261c0,0,0.9,6.7-6.9,6.5c0,0,6.7,0.1,6.5,6.3c0,0,0.6-4.9,6.8-6C420.3,267.8,415.1,269,413.9,261z"/>
			<path class="st2" d="M451.2,166.6c0,0,0.9,6.7-6.9,6.5c0,0,6.7,0.1,6.5,6.3c0,0,0.6-4.9,6.8-6
				C457.6,173.5,452.4,174.7,451.2,166.6z"/>
			<path class="st2" d="M203.4,76.1c0,0,0.9,6.7-6.9,6.5c0,0,6.7,0.1,6.5,6.3c0,0,0.6-4.9,6.8-6C209.8,82.9,204.6,84.1,203.4,76.1z"
				/>
			<path class="st2" d="M136.2,94.6c0,0,0.9,6.7-6.9,6.5c0,0,6.7,0.1,6.5,6.3c0,0,0.6-4.9,6.8-6C142.6,101.4,137.4,102.6,136.2,94.6
				z"/>
			<path class="st2" d="M176.9,66c0,0,0.3,2.3-2.4,2.3c0,0,2.3,0,2.3,2.2c0,0,0.2-1.7,2.4-2.1C179.2,68.4,177.3,68.8,176.9,66z"/>
			<path class="st2" d="M299.3,146.3c0,0,0.3,2.3-2.4,2.3c0,0,2.3,0,2.3,2.2c0,0,0.2-1.7,2.4-2.1
				C301.5,148.7,299.7,149.1,299.3,146.3z"/>
			<path class="st2" d="M72.6,186.2c0,0,0.3,2.3-2.4,2.3c0,0,2.3,0,2.3,2.2c0,0,0.2-1.7,2.4-2.1C74.8,188.6,73,189,72.6,186.2z"/>
			<path class="st2" d="M276,249c0,0,0.3,2.3-2.4,2.3c0,0,2.3,0,2.3,2.2c0,0,0.2-1.7,2.4-2.1C278.2,251.4,276.4,251.8,276,249z"/>
			<g>
				<path class="st3" d="M183.4,211.4h-15.2c-1.9,0-3.5-1.6-3.5-3.5s1.5-3.5,3.4-3.5c0.1-3,2.5-5.4,5.5-5.4c1.9,0,3.6,0.9,4.6,2.5
					c2.1-0.3,3.9,1,4.4,2.9h0.9c1.9,0,3.5,1.6,3.5,3.5C187,209.9,185.4,211.4,183.4,211.4z M168.2,205.4c-1.4,0-2.5,1.1-2.5,2.5
					s1.1,2.5,2.5,2.5h15.2c1.4,0,2.5-1.1,2.5-2.5s-1.1-2.5-2.5-2.5h-1.8l-0.1-0.4c-0.3-1.7-1.8-2.8-3.6-2.4l-0.4,0.1l-0.2-0.3
					c-0.8-1.4-2.3-2.3-3.9-2.3c-2.4,0-4.4,2-4.4,4.4c0,0.1,0,0.3,0,0.4v0.6h-0.8V205.4z"/>
			</g>
			<g>
				<path class="st2" d="M219.3,121.4h-15.2c-1.9,0-3.5-1.6-3.5-3.5s1.5-3.5,3.4-3.5c0.1-3,2.5-5.4,5.5-5.4c1.9,0,3.6,0.9,4.6,2.5
					c2.1-0.3,3.9,1,4.4,2.9h0.9c1.9,0,3.5,1.6,3.5,3.5S221.3,121.4,219.3,121.4z M204.1,115.4c-1.4,0-2.5,1.1-2.5,2.5
					s1.1,2.5,2.5,2.5h15.2c1.4,0,2.5-1.1,2.5-2.5s-1.1-2.5-2.5-2.5h-1.8l-0.1-0.4c-0.3-1.7-1.8-2.8-3.6-2.4l-0.4,0.1l-0.2-0.3
					c-0.8-1.4-2.3-2.3-3.9-2.3c-2.4,0-4.4,2-4.4,4.4c0,0.1,0,0.3,0,0.4v0.6L204.1,115.4L204.1,115.4z"/>
			</g>
			<path class="st4" d="M267.1,316.7L267.1,316.7c-6.5,1.9-13.4-2-15.2-8.5l-9.8-34.5c-1.9-6.5,2-13.4,8.5-15.2l0,0
				c6.5-1.9,13.4,2,15.2,8.5l9.8,34.5C277.4,308.1,273.6,314.9,267.1,316.7z"/>
			<path class="st4" d="M253.1,316.4L253.1,316.4c-4.9-4.8-4.9-12.6-0.2-17.4l25.1-25.6c4.8-4.9,12.6-4.9,17.4-0.2l0,0
				c4.9,4.8,4.9,12.6,0.2,17.4l-25.1,25.6C265.8,321.1,258,321.2,253.1,316.4z"/>
			<g>
				<path class="st5" d="M303.1,267.2c3.3,5,2,11.7-3,15s-11.7,2-15-3s-2-11.7,3-15C293.1,260.9,299.8,262.3,303.1,267.2z"/>
				<path class="st5" d="M286.9,271.7L286.9,271.7c-1.5,0.4-3-0.5-3.4-2l-1-3.7c-0.4-1.5,0.5-3,2-3.4l0,0c1.5-0.4,3,0.5,3.4,2l1,3.7
					C289.3,269.7,288.4,271.3,286.9,271.7z"/>
				<path class="st5" d="M297.7,258.9l-3.8,9.7c-0.6,1.5-2.3,2.2-3.8,1.6l0,0c-1.5-0.6-2.2-2.3-1.6-3.8l3.8-9.7
					c0.6-1.5,2.3-2.2,3.8-1.6l0,0C297.6,255.7,298.3,257.4,297.7,258.9z"/>
				<path class="st5" d="M304.5,260.9l-4.6,9.3c-0.7,1.4-2.5,2-3.9,1.3l0,0c-1.4-0.7-2-2.5-1.3-3.9l4.6-9.3c0.7-1.4,2.5-2,3.9-1.3
					l0,0C304.6,257.7,305.2,259.5,304.5,260.9z"/>
				<path class="st5" d="M309.5,266.1l-6.4,8.2c-1,1.3-2.8,1.5-4.1,0.5l0,0c-1.3-1-1.5-2.8-0.5-4.1l6.4-8.2c1-1.3,2.8-1.5,4.1-0.5
					l0,0C310.3,263,310.5,264.8,309.5,266.1z"/>
			</g>
			<g>
				<path class="st5" d="M238.7,246.3h-0.8c-3.7-0.1-6.6-3.3-6.5-7l0.8-20.6l14.4,0.6l-0.8,20.6
					C245.6,243.6,242.5,246.5,238.7,246.3z"/>
				<path class="st6" d="M246.6,218.5l-14.4-0.6l-0.2,5.6c-0.2,5.5,4.3,10.4,9.8,10c0.3,0,0.7-0.1,1-0.1c1.2-0.2,2.2-0.6,3.2-1.2
					L246.6,218.5z"/>
			</g>
			<g>
				
					<ellipse transform="matrix(0.9622 -0.2723 0.2723 0.9622 -46.462 72.362)" class="st7" cx="237.5" cy="203.6" rx="17.9" ry="13.8"/>
				
					<ellipse transform="matrix(0.9859 -0.1675 0.1675 0.9859 -30.4746 44.5053)" class="st7" cx="248.6" cy="202.9" rx="15.9" ry="10.4"/>
				
					<ellipse transform="matrix(0.7343 -0.6788 0.6788 0.7343 -70.2089 215.0903)" class="st7" cx="239.7" cy="197.2" rx="15.9" ry="10.4"/>
				<path class="st5" d="M254.9,214.9c1.4,7.9-2.7,15.3-9.3,16.5l0,0c-6.5,1.2-13-4.3-14.4-12.2l-1.1-6.2
					c-1.4-7.9,2.7-15.3,9.3-16.5l0,0c6.5-1.2,13,4.3,14.4,12.2L254.9,214.9z"/>
				<path class="st7" d="M240.9,195.5c-3.6-3.3-9.9-1.7-14,3.5s-4.6,12.1-1,15.4c3.6,3.3,9.9,1.7,14-3.5
					C244.1,205.6,244.6,198.7,240.9,195.5z"/>
				<g>
					<g>
						<g>
							<g>
								<path class="st8" d="M243.3,213.1c-0.2,0-0.4-0.1-0.5-0.3c-0.2-0.3-0.1-0.7,0.2-0.9c0.1-0.1,2.2-1.5,4.4-0.2
									c0.3,0.2,0.4,0.6,0.2,0.9c-0.2,0.3-0.6,0.4-0.9,0.2c-1.5-0.9-2.9,0.1-3,0.1C243.6,213.1,243.5,213.1,243.3,213.1z"/>
							</g>
							<g>
								<path class="st8" d="M254.7,213.1c-0.1,0-0.3,0-0.4-0.1l0,0c-0.1,0-1.5-1-3-0.1c-0.3,0.2-0.7,0.1-0.9-0.2
									c-0.2-0.3-0.1-0.7,0.2-0.9c2.2-1.3,4.3,0.1,4.4,0.2c0.3,0.2,0.4,0.6,0.2,0.9C255.1,213,254.9,213.1,254.7,213.1z"/>
							</g>
							<g>
								<path class="st8" d="M246.3,214.9c0,0.4-0.3,0.7-0.7,0.7c-0.4,0-0.7-0.3-0.7-0.7s0.3-0.7,0.7-0.7S246.3,214.5,246.3,214.9z"
									/>
							</g>
							<path class="st8" d="M252.9,215.2c0,0.4-0.3,0.7-0.7,0.7c-0.4,0-0.7-0.3-0.7-0.7s0.3-0.7,0.7-0.7S252.9,214.8,252.9,215.2z"
								/>
						</g>
						<g>
							<g>
								<path class="st9" d="M254.5,219.9c-0.1,0-0.1,0-0.2,0c-1.4-0.1-2.8-0.7-3.7-1.7c-1-1.1-1.5-2.4-1.4-3.9
									c0.1-1.4,0.7-2.8,1.7-3.7c1.1-1,2.4-1.5,3.9-1.4c1.4,0.1,2.8,0.7,3.7,1.7c1,1.1,1.5,2.4,1.4,3.9c-0.1,1.4-0.7,2.8-1.7,3.7
									C257.1,219.4,255.8,219.9,254.5,219.9z M254.5,210.1c-1.1,0-2.2,0.4-3,1.2c-0.9,0.8-1.4,1.9-1.4,3.1c0,1.2,0.4,2.3,1.2,3.2
									c0.8,0.9,1.9,1.4,3.1,1.4s2.3-0.4,3.2-1.2c0.9-0.8,1.4-1.9,1.4-3.1c0-1.2-0.4-2.3-1.2-3.2c-0.8-0.9-1.9-1.4-3.1-1.4
									C254.6,210.1,254.5,210.1,254.5,210.1z"/>
							</g>
							<g>
								<path class="st9" d="M242.9,220.1c-0.1,0-0.2,0-0.2,0c-3.3-0.1-5.9-3-5.8-6.3c0.1-1.6,0.8-3.1,1.9-4.2
									c1.2-1.1,2.7-1.7,4.3-1.6c1.6,0.1,3.1,0.8,4.2,1.9c1.1,1.2,1.7,2.7,1.6,4.3s-0.8,3.1-1.9,4.2
									C245.9,219.6,244.4,220.1,242.9,220.1z M242.9,209.1c-1.3,0-2.5,0.5-3.4,1.3c-1,0.9-1.6,2.2-1.6,3.5l0,0
									c-0.1,2.8,2.1,5.1,4.8,5.2c1.3,0.1,2.6-0.4,3.6-1.3c1-0.9,1.6-2.2,1.6-3.5c0.1-1.3-0.4-2.6-1.3-3.6s-2.2-1.6-3.5-1.6
									C243,209.1,242.9,209.1,242.9,209.1z"/>
							</g>
							<g>
								<path class="st9" d="M247.9,215l2.2,0.1c0.3,0,0.5-0.2,0.5-0.5l0,0c0-0.3-0.2-0.5-0.5-0.5l-2.2-0.1c-0.3,0-0.5,0.2-0.5,0.5
									l0,0C247.4,214.8,247.6,215,247.9,215z"/>
							</g>
						</g>
						<g>
							<path class="st8" d="M252.3,218.2c-0.1,0.8-1,1.5-2,1.6c-1.1,0.1-1.9-0.5-1.8-1.2c0.1-0.8,1-1.5,2-1.6
								C251.6,216.9,252.4,217.4,252.3,218.2z"/>
						</g>
						<g>
							<path class="st8" d="M251.9,222.4c-0.1,1.8-1.7,3.2-3.7,3.1c-2-0.1-3.1-2-3-3.8C247.5,221.5,249.7,221.7,251.9,222.4z"/>
							<path class="st9" d="M248.5,223.5c-1.6-0.2-2.5-0.7-2.6-1.9c1.9-0.1,3.8,0.1,5.7,0.6C251.3,223.3,250,223.7,248.5,223.5z"/>
						</g>
					</g>
					<g>
						<g>
							<g>
								<path class="st10" d="M243.9,226.3L243.9,226.3H240c-1.6,0-3.1-0.6-4.2-1.6l-2.4-2.2c-0.2-0.2-0.2-0.5,0-0.7s0.5-0.2,0.7,0
									l2.4,2.2c1,0.9,2.3,1.4,3.6,1.4h3.9c0.3,0,0.5,0.2,0.5,0.5C244.4,226.1,244.2,226.3,243.9,226.3z"/>
							</g>
							<g>
								<path class="st9" d="M243.9,226.7L243.9,226.7h-1.6c-0.5,0-0.9-0.4-0.9-0.9s0.4-0.9,0.9-0.9l0,0h1.6c0.5,0,0.9,0.4,0.9,0.9
									S244.4,226.7,243.9,226.7z"/>
							</g>
						</g>
						<g>
							<ellipse class="st11" cx="231.3" cy="217.6" rx="7.9" ry="7.9"/>
							
								<ellipse transform="matrix(3.929296e-02 -0.9992 0.9992 3.929296e-02 3.7721 438.9927)" class="st3" cx="230.2" cy="217.5" rx="6.7" ry="6.1"/>
							<path class="st12" d="M231.1,217.6c-0.1,1.5-1.1,2.7-2.2,2.6c-1.2,0-2.1-1.3-2-2.8s1.1-2.7,2.2-2.6
								C230.3,214.8,231.2,216.1,231.1,217.6z"/>
						</g>
					</g>
				</g>
			</g>
			<path class="st4" d="M250.3,327.3l-37.6,1.1c-6.3-0.2-11.1-5.5-10.9-11.8l2.4-62.9c0.1-3.3,2.3-6.1,5.4-7.1l28-8.9l22.4,10.7
				c2.8,1.3,4.6,4.2,4.4,7.4l-2.4,60.7C261.8,322.7,256.6,327.6,250.3,327.3z"/>
			<path class="st13" d="M264.5,255.7c0.1,6.6,0.1,13.1-0.1,19.7c-0.1,6.6-0.3,13.1-0.6,19.6c-0.3,6.5-0.6,13.1-1,19.6
				c-0.1,1.6-0.2,3.4-0.8,5c-0.6,1.6-1.5,3.1-2.7,4.3c-2.4,2.4-5.8,3.7-9.1,3.3c3.3-0.1,6.4-1.5,8.5-4c1-1.2,1.8-2.6,2.2-4.1
				c0.5-1.5,0.4-3,0.5-4.7c0.1-6.6,0.3-13.1,0.6-19.6c0.3-6.5,0.6-13.1,1-19.6C263.4,268.8,263.8,262.2,264.5,255.7z"/>
			<path class="st4" d="M247.9,249.5l-20.3-1.3l0.7-11c0.1-2.1,1.9-3.7,4-3.5l12.7,0.8c2.1,0.1,3.7,1.9,3.5,4L247.9,249.5z"/>
			<path class="st4" d="M187.5,308.9L187.5,308.9c-6.3-2.6-9.3-9.8-6.7-16.1l13.8-33.1c2.6-6.3,9.8-9.3,16.1-6.7l0,0
				c6.3,2.6,9.3,9.8,6.7,16.1l-13.8,33.1C201,308.5,193.8,311.5,187.5,308.9z"/>
			<path class="st13" d="M210.7,253c2.2,0.7,4.2,2.1,5.7,4c1.5,1.9,2.4,4.2,2.6,6.7c0.3,2.4-0.5,5-1.3,7.1l-2.6,6.4
				c-1.8,4.2-3.6,8.5-5.5,12.7l-2.9,6.3c-1,2.1-2,4.2-3.1,6.2c0.7-2.2,1.5-4.4,2.2-6.6l2.4-6.5c1.6-4.3,3.4-8.6,5.1-12.8l2.7-6.4
				c0.5-1.1,0.9-2,1.2-3.1c0.3-1,0.4-2.1,0.4-3.2C217.5,259.4,214.8,255.1,210.7,253z"/>
			<g>
				<g>
					<g>
						<path class="st8" d="M244.8,291.5l-6.3-0.4c-2.4-0.2-4.1-2.2-4-4.5l0.2-2.8c0.2-2.4,2.2-4.1,4.5-4l6.3,0.4L244.8,291.5z
							 M239.1,282.6c-0.8-0.1-1.5,0.6-1.5,1.4l-0.2,2.8c-0.1,0.8,0.6,1.5,1.4,1.5l3.5,0.2l0.4-5.7L239.1,282.6z"/>
					</g>
					<g>
						<path class="st6" d="M250.9,300.5l-5.4-0.3c-3.3-0.2-5.8-3.1-5.6-6.3l1.1-17.4c0.1-1.9,17.5-0.8,17.4,1.1l-1.1,17.4
							C257,298.2,254.2,300.7,250.9,300.5z"/>
						<path class="st8" d="M256.7,278c0,0.7-3.3,1.1-7.2,0.8c-3.9-0.3-7.1-1-7-1.7c0-0.7,3.3-1.1,7.2-0.8
							C253.5,276.5,256.7,277.3,256.7,278z"/>
					</g>
				</g>
				<path class="st4" d="M180.7,297.8L180.7,297.8c0.1-6.8,5.7-12.2,12.5-12.1l35.9,0.6c6.8,0.1,12.2,5.7,12.1,12.5l0,0
					c-0.1,6.8-5.7,12.2-12.5,12.1l-35.9-0.6C186,310.2,180.6,304.6,180.7,297.8z"/>
				<path class="st13" d="M193.2,285.7c4.6-0.3,9.2-0.4,13.8-0.5c4.6-0.1,9.2-0.1,13.8,0l6.9,0.2c2.3,0,4.9,0.3,7,1.6
					c2.1,1.2,3.9,2.9,5.1,5c1.1,2.1,1.6,4.5,1.4,6.8c-0.3-4.6-3.2-8.8-7.1-10.5c-1-0.5-2-0.8-3.1-0.9c-1.1-0.2-2.1-0.2-3.3-0.2
					l-6.9-0.1c-4.6-0.1-9.2-0.2-13.8-0.4C202.4,286.4,197.8,286.1,193.2,285.7z"/>
				<g>
					<ellipse class="st5" cx="242.8" cy="296.1" rx="10.8" ry="10.8"/>
					<path class="st5" d="M237.2,290.9L237.2,290.9c-1.3-0.5-2.1-1.9-1.6-3.3l1.2-3.3c0.5-1.3,1.9-2.1,3.3-1.6l0,0
						c1.3,0.5,2.1,1.9,1.6,3.3l-1.2,3.3C240.1,290.6,238.6,291.4,237.2,290.9z"/>
					<path class="st5" d="M257.9,292.3l-9.6,0.9c-1.5,0.1-2.8-1-2.9-2.4l0,0c-0.1-1.5,1-2.8,2.4-2.9l9.6-0.9c1.5-0.1,2.8,1,2.9,2.4
						l0,0C260.5,290.8,259.4,292.2,257.9,292.3z"/>
					<path class="st5" d="M255.9,301.1l-9.6-0.6c-1.5-0.1-2.6-1.4-2.5-2.9l0,0c0.1-1.5,1.4-2.6,2.9-2.5l9.6,0.6
						c1.5,0.1,2.6,1.4,2.5,2.9l0,0C258.6,300.1,257.4,301.2,255.9,301.1z"/>
				</g>
			</g>
			<g>
				<g>
					<g>
						<path class="st11" d="M353.5,268.4c-0.3,0-0.6-0.1-0.8-0.3c-0.4-0.4-0.4-1.2,0-1.6l10.7-10.7c0.4-0.4,1.2-0.4,1.6,0
							c0.4,0.4,0.4,1.2,0,1.6l-10.7,10.7C354.1,268.3,353.8,268.4,353.5,268.4z"/>
					</g>
					<g>
						<g>
							<path class="st11" d="M345.8,261.8c-0.6,0-1.1-0.5-1.1-1.1v-15.2c0-0.6,0.5-1.1,1.1-1.1s1.1,0.5,1.1,1.1v15.2
								C346.9,261.3,346.4,261.8,345.8,261.8z"/>
						</g>
						<g>
							<path class="st11" d="M375.3,276h-15.2c-0.6,0-1.1-0.5-1.1-1.1s0.5-1.1,1.1-1.1h15.2c0.6,0,1.1,0.5,1.1,1.1
								S375.9,276,375.3,276z"/>
						</g>
					</g>
				</g>
				<g>
					<g>
						<path class="st14" d="M240.3,323.3h93c2.6,0,3.4-2.1,3.4-4.7l0,0H235.6l0,0C235.6,321.2,237.7,323.3,240.3,323.3z"/>
						<path class="st14" d="M234.9,318.6h33c0,2.6-2.4,4.7-5.3,4.7H241c0,0-6.1,0-6.2,0C231.7,323.3,231.9,318.6,234.9,318.6z"/>
						<g>
							<path class="st15" d="M269.9,320h66.8c2,0,3.7-1.4,4.1-3.4l9-38.6c0.5-2.5-1.5-4.9-4.1-4.9h-66.8c-2,0-3.7,1.4-4.1,3.4
								l-9,38.6C265.4,317.6,267.3,320,269.9,320z"/>
							<path class="st14" d="M274.8,276.5c0.2-1.1,0.8-2,1.6-2.6c1.2,0.9,2,2.5,1.6,4.1l-9,38.6c-0.2,1.1-0.8,2-1.6,2.6
								c-1.2-0.9-2-2.5-1.6-4.1L274.8,276.5z"/>
							<g>
								<path class="st16" d="M316.8,301.5h-10.9c-2.2,0-4.1-1.8-4.1-4.1l0,0c0-2.2,1.8-4.1,4.1-4.1h10.9c2.2,0,4.1,1.8,4.1,4.1l0,0
									C320.9,299.6,319.1,301.5,316.8,301.5z"/>
							</g>
						</g>
					</g>
					<g>
						<path class="st14" d="M244.8,319.9h-3.3c-0.6,0-1.2-0.5-1.2-1.2l0,0c0-0.6,0.5-1.2,1.2-1.2h3.3c0.6,0,1.2,0.5,1.2,1.2l0,0
							C246,319.4,245.5,319.9,244.8,319.9z"/>
						<path class="st14" d="M251.3,319.9H248c-0.6,0-1.2-0.5-1.2-1.2l0,0c0-0.6,0.5-1.2,1.2-1.2h3.3c0.6,0,1.2,0.5,1.2,1.2l0,0
							C252.4,319.4,251.9,319.9,251.3,319.9z"/>
						<path class="st14" d="M257.7,319.9h-3.3c-0.6,0-1.2-0.5-1.2-1.2l0,0c0-0.6,0.5-1.2,1.2-1.2h3.3c0.6,0,1.2,0.5,1.2,1.2l0,0
							C258.8,319.4,258.3,319.9,257.7,319.9z"/>
						<path class="st14" d="M264.1,319.9h-3.3c-0.6,0-1.2-0.5-1.2-1.2l0,0c0-0.6,0.5-1.2,1.2-1.2h3.3c0.6,0,1.2,0.5,1.2,1.2l0,0
							C265.3,319.4,264.7,319.9,264.1,319.9z"/>
					</g>
				</g>
			</g>
			<path class="st7" d="M386.4,328.7H105.5c-1.6,0-2.8-1.3-2.8-2.8l0,0c0-1.6,1.3-2.8,2.8-2.8h280.9c1.6,0,2.8,1.3,2.8,2.8l0,0
				C389.2,327.4,388,328.7,386.4,328.7z"/>
			<g>
				<g>
					<path class="st17" d="M147.6,305.7c0,0-2.1-15.5-5.8-19.3"/>
					<g>
						<path class="st9" d="M142.4,277.2c1,3.3,0.8,6.3-0.5,6.7c-1.3,0.4-3.1-2-4.1-5.3v-0.1C137,275.5,141.4,274.1,142.4,277.2
							C142.4,277.1,142.4,277.1,142.4,277.2z"/>
						<g>
							<path class="st9" d="M148.3,284.6c-3.3,1-6.3,0.8-6.7-0.5s2-3.1,5.3-4.1h0.1C150,279.1,151.4,283.6,148.3,284.6
								C148.4,284.5,148.4,284.5,148.3,284.6z"/>
							<path class="st9" d="M137,288c3.3-1,5.7-2.8,5.3-4.1c-0.4-1.3-3.4-1.5-6.7-0.5h-0.1C132.6,284.4,134,288.8,137,288
								C136.9,288,137,288,137,288z"/>
						</g>
						<g>
							<path class="st9" d="M142.6,291.7c0.9-3.3,0.7-6.3-0.6-6.7c-1.3-0.4-3,2.1-4,5.4v0.1C137.2,293.5,141.7,294.8,142.6,291.7
								C142.6,291.8,142.6,291.8,142.6,291.7z"/>
							<path class="st9" d="M145.8,290.8c-2.6-2.3-4-4.9-3.2-5.9c0.9-1,3.7,0,6.3,2.3c0,0,0.1,0,0.1,0.1
								C151.2,289.3,148.2,292.8,145.8,290.8L145.8,290.8z"/>
						</g>
						<path class="st6" d="M143.5,284.3c0.3,0.9-0.2,1.8-1.1,2c-0.9,0.3-1.8-0.2-2-1.1c-0.3-0.9,0.2-1.8,1.1-2
							C142.3,282.9,143.2,283.4,143.5,284.3z"/>
					</g>
					<g>
						<path class="st11" d="M141.5,295.8c4.3,3.4,6.7,7.5,5.5,9.1c-1.3,1.6-5.8,0.2-10.1-3.2c-4.3-3.4-5.5-9.1-5.5-9.1
							S137.2,292.4,141.5,295.8z"/>
						<path class="st11" d="M156.6,300.9c-4.5,4.3-9.5,6.3-11.1,4.6s0.8-6.6,5.3-10.8c4.5-4.3,11.1-4.6,11.1-4.6
							S161.1,296.6,156.6,300.9z"/>
					</g>
				</g>
				<g>
					<polygon class="st7" points="153.3,324 138.4,324 135.8,305.3 155.9,305.3 					"/>
					<path class="st7" d="M156.2,310.1h-20.8c-0.8,0-1.5-0.7-1.5-1.5v-4c0-0.8,0.7-1.5,1.5-1.5h20.8c0.8,0,1.5,0.7,1.5,1.5v4
						C157.7,309.4,157,310.1,156.2,310.1z"/>
				</g>
			</g>
			<polygon class="st18" points="191.1,165.6 198.5,173.5 254.6,150.1 			"/>
			<polygon class="st2" points="193.8,139.6 188.2,147.9 192,156.1 183.6,157.6 176.1,173.9 256.4,149.6 			"/>
			<polygon class="st18" points="192,156.1 188.2,147.9 231.7,150 			"/>
			<g>
				<path class="st19" d="M187.7,237.2c-0.6,0-1.2,0-1.9,0c-0.6,0-1.1-0.5-1.1-1.1s0.5-1.2,1.1-1.1c2.9,0,5.8,0,9-0.1l0,0
					c0.6,0,1.1,0.5,1.1,1.1s-0.5,1.1-1.1,1.2C192.4,237.2,190.1,237.2,187.7,237.2z M176.9,236.8
					C176.8,236.8,176.8,236.8,176.9,236.8c-3.2-0.3-6.3-0.7-9.2-1.2c-0.6-0.1-1-0.7-0.9-1.3s0.7-1,1.3-0.9c2.8,0.5,5.8,0.9,8.9,1.2
					c0.6,0.1,1.1,0.6,1,1.2C177.9,236.3,177.4,236.8,176.9,236.8z M159.1,233.5c-0.1,0-0.2,0-0.3-0.1c-3-0.9-5.9-2-8.6-3.3
					c-0.6-0.3-0.8-0.9-0.5-1.5s0.9-0.8,1.5-0.5c2.6,1.2,5.4,2.3,8.3,3.2c0.6,0.2,0.9,0.8,0.7,1.4C160,233.2,159.6,233.5,159.1,233.5
					z M142.8,225.8c-0.2,0-0.4-0.1-0.6-0.2c-2.6-1.7-5-3.6-7.2-5.7c-0.5-0.4-0.5-1.1-0.1-1.6s1.1-0.5,1.6-0.1c2.2,2,4.5,3.8,7,5.5
					c0.5,0.3,0.7,1,0.3,1.6C143.5,225.7,143.1,225.8,142.8,225.8z M129.5,213.6c-0.3,0-0.7-0.1-0.9-0.4c-1.9-2.4-3.7-5-5.2-7.6
					c-0.3-0.5-0.1-1.2,0.4-1.5s1.2-0.1,1.5,0.4c1.5,2.6,3.1,5,5,7.3c0.4,0.5,0.3,1.2-0.2,1.6C130,213.6,129.8,213.6,129.5,213.6z
					 M120.6,198c-0.5,0-0.9-0.3-1.1-0.7c-1.1-2.9-2-5.9-2.5-8.9c-0.1-0.6,0.3-1.2,0.9-1.3c0.6-0.1,1.2,0.3,1.3,0.9
					c0.6,2.8,1.4,5.7,2.4,8.5c0.2,0.6-0.1,1.2-0.7,1.5C120.9,198,120.7,198,120.6,198z M117,180.3c-0.6,0-1.1-0.5-1.1-1.1
					c-0.1-1.8-0.2-3.8-0.2-5.8V173c0-1,0-2,0.1-2.9c0-0.6,0.5-1.1,1.1-1.1l0,0c0.6,0,1.1,0.5,1.1,1.2c0,1,0,1.9-0.1,2.9v0.5
					c0,1.9,0.1,3.8,0.2,5.6C118.2,179.7,117.7,180.3,117,180.3C117.1,180.3,117,180.3,117,180.3z"/>
			</g>
			<g>
				<path class="st19" d="M126.5,162.5c-1.7,0-3.4,0-5.1-0.1c-0.6,0-1.1-0.5-1.1-1.2c0-0.6,0.5-1.1,1.1-1.1l0,0c2.9,0.1,5.9,0.1,9,0
					c0.7,0,1.1,0.5,1.1,1.1s-0.5,1.1-1.1,1.1C129.1,162.4,127.8,162.5,126.5,162.5z M139.5,162.1c-0.6,0-1.1-0.5-1.1-1.1
					s0.4-1.2,1.1-1.2c2.9-0.2,5.9-0.4,9-0.7c0.6-0.1,1.2,0.4,1.2,1c0.1,0.6-0.4,1.2-1,1.2C145.6,161.7,142.5,161.9,139.5,162.1
					C139.6,162.1,139.5,162.1,139.5,162.1z M112.4,161.9C112.4,161.9,112.3,161.9,112.4,161.9c-3.2-0.2-6.3-0.6-9.2-1
					c-0.6-0.1-1-0.7-1-1.3c0.1-0.6,0.7-1,1.3-1c2.8,0.4,5.8,0.7,8.9,1c0.6,0,1.1,0.6,1,1.2C113.5,161.5,113,161.9,112.4,161.9z
					 M157.5,160.5c-0.6,0-1.1-0.4-1.1-1c-0.1-0.6,0.4-1.2,1-1.2c2.9-0.3,5.9-0.7,8.9-1.2c0.6-0.1,1.2,0.3,1.3,1
					c0.1,0.6-0.3,1.2-1,1.3c-3.1,0.4-6.1,0.8-9,1.2C157.6,160.5,157.6,160.5,157.5,160.5z M94.5,159.3c-0.1,0-0.2,0-0.2,0
					c-2.2-0.5-4.3-1-6.3-1.6c-0.9-0.3-1.7-0.5-2.5-0.8c-0.6-0.2-0.9-0.8-0.7-1.4c0.2-0.6,0.8-0.9,1.4-0.7c0.8,0.3,1.6,0.5,2.5,0.8
					c2,0.6,4,1.1,6.2,1.6c0.6,0.1,1,0.7,0.9,1.3C95.5,159,95,159.3,94.5,159.3z M77.4,153.6c-0.2,0-0.3,0-0.5-0.1
					c-2.9-1.4-5.6-3-7.9-4.7c-0.5-0.4-0.6-1.1-0.3-1.6c0.4-0.5,1.1-0.6,1.6-0.3c2.3,1.6,4.9,3.1,7.6,4.5c0.6,0.3,0.8,0.9,0.5,1.5
					C78.2,153.3,77.8,153.6,77.4,153.6z M116.2,152.5c-0.6,0-1.1-0.5-1.1-1.1V151c0-2.8-0.1-5.7-0.3-8.6c0-0.6,0.4-1.2,1-1.2
					c0.6-0.1,1.2,0.4,1.2,1c0.2,2.9,0.3,5.9,0.3,8.8v0.4C117.3,152,116.8,152.5,116.2,152.5z M62.8,143c-0.3,0-0.6-0.1-0.8-0.4
					c-2.1-2.3-3.9-4.9-5.4-7.5c-0.3-0.5-0.1-1.2,0.4-1.5s1.2-0.1,1.5,0.4c1.4,2.5,3.1,4.9,5.1,7.1c0.4,0.5,0.4,1.2-0.1,1.6
					C63.4,142.9,63.1,143,62.8,143z M114.7,134.5c-0.5,0-1-0.4-1.1-0.9c-0.5-3.1-1.2-6-2-8.7c-0.2-0.6,0.2-1.2,0.8-1.4
					c0.6-0.2,1.2,0.2,1.4,0.8c0.8,2.8,1.5,5.8,2.1,9c0.1,0.6-0.3,1.2-0.9,1.3C114.8,134.5,114.8,134.5,114.7,134.5z M54.2,127.3
					c-0.5,0-0.9-0.3-1.1-0.8c-0.1-0.5-0.3-1-0.4-1.5c-0.4-1.7-0.6-3.4-0.6-5c0-1,0.1-1.9,0.2-2.9c0.1-0.6,0.7-1,1.3-0.9
					s1,0.7,0.9,1.3c-0.1,0.8-0.2,1.7-0.2,2.6c0,1.4,0.2,2.9,0.5,4.5c0.1,0.5,0.2,1,0.4,1.4c0.2,0.6-0.2,1.2-0.8,1.4
					C54.4,127.3,54.3,127.3,54.2,127.3z M109.5,117.2c-0.4,0-0.8-0.2-1-0.6c-1.3-2.8-2.9-5.3-4.6-7.5c-0.4-0.5-0.3-1.2,0.2-1.6
					s1.2-0.3,1.6,0.2c1.8,2.3,3.5,4.9,4.9,7.9c0.3,0.6,0,1.2-0.5,1.5C109.8,117.2,109.7,117.2,109.5,117.2z M57,110.1
					c-0.2,0-0.5-0.1-0.7-0.2c-0.5-0.4-0.6-1.1-0.2-1.6c1.8-2.4,4.2-4.5,7.1-6.2c0.5-0.3,1.2-0.2,1.5,0.4c0.3,0.5,0.2,1.2-0.4,1.5
					c-2.6,1.6-4.8,3.5-6.4,5.7C57.7,110,57.3,110.1,57,110.1z M98.1,103.4c-0.2,0-0.4-0.1-0.6-0.2c-2.4-1.6-5-2.7-7.9-3.4
					c-0.6-0.2-1-0.8-0.8-1.4c0.1-0.6,0.8-1,1.4-0.8c3.1,0.8,6,2,8.6,3.7c0.5,0.3,0.7,1,0.3,1.6C98.8,103.3,98.5,103.4,98.1,103.4z
					 M72,100.6c-0.5,0-0.9-0.3-1.1-0.8c-0.2-0.6,0.2-1.2,0.8-1.4c2.8-0.8,5.8-1.4,8.9-1.6h0.3c0.6,0,1.1,0.5,1.1,1.1
					S81.5,99,80.9,99h-0.2c-2.8,0.2-5.7,0.7-8.4,1.5C72.2,100.6,72.1,100.6,72,100.6z"/>
			</g>
			<g>
				<path class="st11" d="M342.9,108.2h60.2c7.5,0,13.6,6.1,13.6,13.6v31c0,7.5-6.1,13.6-13.6,13.6h-39.4L349.6,179v-12.5h-6.7
					c-7.5,0-13.6-6.1-13.6-13.6v-31C329.3,114.3,335.4,108.2,342.9,108.2z"/>
				<g>
					<g>
						<path class="st3" d="M351.7,127.5h42.7c0.9,0,1.7-0.8,1.7-1.7c0-0.9-0.8-1.7-1.7-1.7h-42.7c-0.9,0-1.7,0.8-1.7,1.7
							S350.8,127.5,351.7,127.5z"/>
					</g>
					<g>
						<path class="st3" d="M351.7,138.8h42.7c0.9,0,1.7-0.8,1.7-1.7s-0.8-1.7-1.7-1.7h-42.7c-0.9,0-1.7,0.8-1.7,1.7
							S350.8,138.8,351.7,138.8z"/>
					</g>
					<g>
						<path class="st3" d="M388.1,150.2h6.3c0.9,0,1.7-0.8,1.7-1.7s-0.8-1.7-1.7-1.7h-6.3c-0.9,0-1.7,0.8-1.7,1.7
							C386.4,149.5,387.2,150.2,388.1,150.2z"/>
					</g>
					<g>
						<path class="st3" d="M373.9,150.2h6.3c0.9,0,1.7-0.8,1.7-1.7s-0.8-1.7-1.7-1.7h-6.3c-0.9,0-1.7,0.8-1.7,1.7
							C372.2,149.5,372.9,150.2,373.9,150.2z"/>
					</g>
					<g>
						<path class="st3" d="M351.7,150.2h14.2c0.9,0,1.7-0.8,1.7-1.7s-0.8-1.7-1.7-1.7h-14.2c-0.9,0-1.7,0.8-1.7,1.7
							C350,149.5,350.8,150.2,351.7,150.2z"/>
					</g>
				</g>
			</g>
			<path class="st3" d="M335.3,170.2h-46.1c-4.5,0-8.2,3.7-8.2,8.2V205c0,4.3,3.4,7.9,7.6,8.2l-9.5,15.6l25-15.5h31.1
				c4.5,0,8.2-3.7,8.2-8.2v-26.6C343.5,173.9,339.9,170.2,335.3,170.2z"/>
			<g>
				<ellipse class="st20" cx="312.3" cy="185.3" rx="5.5" ry="5.5"/>
				<path class="st20" d="M325.2,203.6h-25.8l0,0c0-4.6,3.7-8.3,8.3-8.3h9.3C321.5,195.4,325.2,199.1,325.2,203.6L325.2,203.6z"/>
			</g>
			<g>
				<g>
					<g>
						<path class="st11" d="M283.3,141.4c-1.5,0-3.1-0.2-4.5-0.5c-0.6-0.1-1-0.7-0.9-1.3s0.7-1,1.3-0.9c2.3,0.5,4.8,0.5,7.1,0.2
							c0.6-0.1,1.2,0.3,1.3,0.9c0.1,0.6-0.3,1.2-0.9,1.3C285.5,141.3,284.4,141.4,283.3,141.4z M293.5,138.8c-0.4,0-0.8-0.2-1-0.6
							c-0.3-0.5-0.1-1.2,0.4-1.5c2.1-1.2,3.9-2.7,5.5-4.5c0.4-0.5,1.1-0.5,1.6-0.1s0.5,1.1,0.1,1.6c-1.7,2-3.8,3.7-6.1,5
							C293.9,138.7,293.7,138.8,293.5,138.8z M272.1,138.2c-0.2,0-0.4-0.1-0.6-0.2c-2.2-1.4-4.2-3.2-5.8-5.3
							c-0.4-0.5-0.3-1.2,0.2-1.6c0.5-0.4,1.2-0.3,1.6,0.2c1.5,1.9,3.2,3.5,5.2,4.8c0.5,0.3,0.7,1,0.4,1.6
							C272.8,138,272.4,138.2,272.1,138.2z M303.1,127.6c-0.1,0-0.3,0-0.4-0.1c-0.6-0.2-0.9-0.9-0.7-1.4c0.8-2.2,1.2-4.6,1.2-7
							c0-0.6,0.5-1.1,1.1-1.1s1.1,0.5,1.1,1.1c0,2.7-0.5,5.3-1.4,7.7C304,127.3,303.6,127.6,303.1,127.6z M263.1,126.5
							c-0.5,0-0.9-0.3-1.1-0.8c-0.7-2.1-1-4.3-1-6.6c0-0.4,0-0.8,0-1.2c0-0.6,0.6-1.1,1.2-1.1s1.1,0.6,1.1,1.2c0,0.4,0,0.7,0,1.1
							c0,2,0.3,4,0.9,5.9c0.2,0.6-0.2,1.2-0.7,1.4C263.3,126.5,263.2,126.5,263.1,126.5z M303.8,115.2c-0.5,0-1-0.3-1.1-0.9
							c-0.6-2.3-1.5-4.5-2.9-6.4c-0.4-0.5-0.2-1.2,0.3-1.6s1.2-0.2,1.6,0.3c1.5,2.2,2.6,4.6,3.2,7.2c0.2,0.6-0.2,1.2-0.8,1.4
							C304,115.2,303.9,115.2,303.8,115.2z M263.9,111.8c-0.2,0-0.3,0-0.5-0.1c-0.6-0.2-0.8-0.9-0.6-1.5c1.1-2.4,2.5-4.6,4.4-6.5
							c0.4-0.5,1.1-0.5,1.6,0c0.4,0.4,0.5,1.1,0,1.6c-1.7,1.7-3,3.7-3.9,5.9C264.8,111.6,264.4,111.8,263.9,111.8z M295.5,103
							c-0.2,0-0.5-0.1-0.7-0.2c-1.9-1.4-4.1-2.4-6.4-3c-0.6-0.2-1-0.8-0.8-1.4s0.8-1,1.4-0.8c2.6,0.7,5,1.8,7.1,3.3
							c0.5,0.4,0.6,1.1,0.3,1.6C296.2,102.9,295.9,103,295.5,103z M274.1,101.2c-0.4,0-0.8-0.2-1-0.6c-0.3-0.6,0-1.2,0.5-1.5
							c2.4-1.2,4.9-1.9,7.6-2.1c0.6-0.1,1.2,0.4,1.2,1c0.1,0.6-0.4,1.2-1,1.2c-2.4,0.2-4.7,0.9-6.8,1.9
							C274.5,101.2,274.3,101.2,274.1,101.2z"/>
					</g>
					<g>
						<path class="st11" d="M283.3,108.5c-8.2,0-14.8,4.4-14.8,9.8l0,0c0,1.4,1.1,2.4,2.2,1.9l3.9-1.7c0.9-0.4,1.4-1.8,1-2.9
							l-0.5-1.3c0,0,7.1,1.3,16.4,0L291,116c-0.3,1.1,0.1,2.2,0.9,2.7l3.8,2.1c0.9,0.5,2-0.2,2.2-1.4c0.1-0.4,0.1-0.7,0.1-1.1
							C298.1,112.8,291.5,108.5,283.3,108.5z"/>
						<path class="st3" d="M293.5,129.8H273l3-9.5c0.6-1.8,2.2-3,4.1-3h6.2c1.9,0,3.5,1.2,4.1,3L293.5,129.8z"/>
					</g>
				</g>
				<g>
					<g>
						<path class="st11" d="M411.6,242.7c-1.5,0-3.1-0.2-4.5-0.5c-0.6-0.1-1-0.7-0.9-1.3s0.7-1,1.3-0.9c2.3,0.5,4.8,0.5,7.1,0.2
							c0.6-0.1,1.2,0.3,1.3,0.9c0.1,0.6-0.3,1.2-0.9,1.3C413.8,242.6,412.7,242.7,411.6,242.7z M421.8,240.1c-0.4,0-0.8-0.2-1-0.6
							c-0.3-0.5-0.1-1.2,0.4-1.5c2.1-1.2,3.9-2.7,5.5-4.5c0.4-0.5,1.1-0.5,1.6-0.1s0.5,1.1,0.1,1.6c-1.7,2-3.8,3.7-6.1,5
							C422.2,240,422,240.1,421.8,240.1z M400.3,239.5c-0.2,0-0.4-0.1-0.6-0.2c-2.2-1.4-4.2-3.2-5.8-5.3c-0.4-0.5-0.3-1.2,0.2-1.6
							c0.5-0.4,1.2-0.3,1.6,0.2c1.5,1.9,3.2,3.5,5.2,4.8c0.5,0.3,0.7,1,0.4,1.6C401.1,239.3,400.7,239.5,400.3,239.5z M431.4,229
							c-0.1,0-0.3,0-0.4-0.1c-0.6-0.2-0.9-0.9-0.7-1.4c0.8-2.2,1.2-4.6,1.2-7c0-0.6,0.5-1.1,1.1-1.1s1.1,0.5,1.1,1.1
							c0,2.7-0.5,5.3-1.4,7.7C432.3,228.7,431.8,229,431.4,229z M391.4,227.8c-0.5,0-0.9-0.3-1.1-0.8c-0.7-2.1-1-4.3-1-6.6
							c0-0.4,0-0.8,0-1.2c0-0.6,0.6-1.1,1.2-1.1s1.1,0.6,1.1,1.2c0,0.4,0,0.7,0,1.1c0,2,0.3,4,0.9,5.9c0.2,0.6-0.2,1.2-0.7,1.4
							C391.6,227.8,391.5,227.8,391.4,227.8z M432.1,216.5c-0.5,0-1-0.3-1.1-0.9c-0.6-2.3-1.5-4.5-2.9-6.4c-0.4-0.5-0.2-1.2,0.3-1.6
							c0.5-0.4,1.2-0.2,1.6,0.3c1.5,2.2,2.6,4.6,3.2,7.2c0.2,0.6-0.2,1.2-0.8,1.4C432.2,216.5,432.2,216.5,432.1,216.5z
							 M392.2,213.2c-0.2,0-0.3,0-0.5-0.1c-0.6-0.2-0.8-0.9-0.6-1.5c1.1-2.4,2.5-4.6,4.4-6.5c0.4-0.5,1.1-0.5,1.6,0
							c0.4,0.4,0.5,1.1,0,1.6c-1.7,1.7-3,3.7-3.9,5.9C393,212.9,392.6,213.2,392.2,213.2z M423.8,204.4c-0.2,0-0.5-0.1-0.7-0.2
							c-1.9-1.4-4.1-2.4-6.4-3c-0.6-0.2-1-0.8-0.8-1.4c0.2-0.6,0.8-1,1.4-0.8c2.6,0.7,5,1.8,7.1,3.3c0.5,0.4,0.6,1.1,0.3,1.6
							C424.5,204.2,424.1,204.4,423.8,204.4z M402.4,202.6c-0.4,0-0.8-0.2-1-0.6c-0.3-0.6,0-1.2,0.5-1.5c2.4-1.2,4.9-1.9,7.6-2.1
							c0.6-0.1,1.2,0.4,1.2,1c0.1,0.6-0.4,1.2-1,1.2c-2.4,0.2-4.7,0.9-6.8,1.9C402.7,202.5,402.6,202.6,402.4,202.6z"/>
					</g>
					<g>
						<rect x="398.3" y="216.5" class="st3" width="26.2" height="14.8"/>
						<g>
							<g>
								<path class="st11" d="M420.9,215.3v-1.8c0-1.3,1.1-2.4,2.4-2.4l0,0c1.3,0,2.4,1.1,2.4,2.4v3h-4.8"/>
								<path class="st12" d="M420.9,213.4v15.4H403v-15.4c0-1.3,1.1-2.4,2.4-2.4h17.7l-0.5,0.1
									C421.7,211.4,420.9,212.3,420.9,213.4z"/>
							</g>
							<g>
								<rect x="404.2" y="213.5" class="st11" width="4" height="4.1"/>
								<g>
									<g>
										<line class="st21" x1="409.4" y1="213.5" x2="419.4" y2="213.5"/>
										<line class="st21" x1="409.4" y1="214.9" x2="419.4" y2="214.9"/>
										<line class="st21" x1="409.4" y1="216.2" x2="419.4" y2="216.2"/>
										<line class="st21" x1="409.5" y1="217.6" x2="419.5" y2="217.6"/>
									</g>
									<line class="st21" x1="404.2" y1="219" x2="419.4" y2="219"/>
									<line class="st21" x1="404.2" y1="220.3" x2="419.4" y2="220.3"/>
									<line class="st21" x1="404.2" y1="221.7" x2="419.4" y2="221.7"/>
									<line class="st21" x1="404.2" y1="223" x2="411.6" y2="223"/>
								</g>
							</g>
						</g>
						<polygon class="st11" points="418,231.3 398.3,231.3 398.3,216.5 						"/>
						<polygon class="st11" points="404.7,231.3 424.5,231.3 424.5,216.5 						"/>
						<path class="st11" d="M424.5,231.3h-13.1h-13.1l11.8-6.3c0.8-0.6,1.9-0.6,2.7,0L424.5,231.3z"/>
					</g>
				</g>
			</g>
		</g>
	</g>
</g>
</svg>
